<svg width="25" height="18" viewBox="0 0 25 18" fill="none" xmlns="http://www.w3.org/2000/svg">
<g clip-path="url(#clip0_39_4198)">
<path d="M16.3734 0.943243C16.2176 0.901611 16.0646 0.863356 15.9149 0.827913L15.2978 0.726647C15.1622 0.702456 15.0255 0.680515 14.8888 0.660262C14.6958 0.632133 14.5017 0.608505 14.3087 0.589939C14.2992 0.588252 14.2907 0.587689 14.2829 0.587126C13.8677 0.54662 13.4446 0.526367 13.0255 0.526367C5.8981 0.526367 0.100098 6.32493 0.100098 13.4518C0.100098 13.6419 0.104598 13.8394 0.113037 14.038L0.49897 15.7437L1.29672 15.7955L1.57238 14.2242C1.58082 14.1769 1.59207 14.1263 1.60557 14.0751L1.64889 13.9148L1.64496 13.7471C1.64271 13.6509 1.64158 13.5519 1.64158 13.4518C1.64158 10.748 2.61035 8.12464 4.36955 6.06614C6.11019 4.02958 8.51187 2.66532 11.1329 2.22537C11.749 2.1213 12.3858 2.06841 13.0255 2.06841C13.1746 2.06841 13.3237 2.07123 13.4722 2.07741C13.9881 2.0971 14.4995 2.15111 14.9985 2.23831L15.3079 2.29288L15.5931 2.34295L15.7158 2.22031L16.7588 1.17728L16.7852 1.17278V1.05801C16.6513 1.01863 16.5141 0.980373 16.3734 0.943243V0.943243Z" fill="black"/>
<path d="M6.79434 13.9716C6.79434 15.8478 5.27367 17.3691 3.39689 17.3691C2.09282 17.3691 0.95977 16.6332 0.390996 15.5547C0.345427 15.4703 0.304358 15.3831 0.266665 15.2943C0.266665 15.2937 0.266103 15.2926 0.266103 15.292C0.0945143 14.8858 0 14.4391 0 13.9716C0 13.7691 0.0174401 13.5716 0.0517578 13.3787V13.377C0.0686354 13.2808 0.0900136 13.1857 0.114767 13.0923C0.501826 11.6414 1.82503 10.5736 3.39745 10.5736C3.86552 10.5736 4.31053 10.6676 4.71559 10.8391C5.93752 11.3534 6.79434 12.5623 6.79434 13.9716V13.9716Z" fill="black"/>
<path d="M16.7863 13.9598C16.7863 15.836 15.2656 17.3572 13.3888 17.3572C12.0848 17.3572 10.9517 16.6214 10.3829 15.5429C10.3374 15.4585 10.2963 15.3713 10.2586 15.2824C10.2586 15.2819 10.258 15.2807 10.258 15.2802C10.0865 14.874 9.99194 14.4273 9.99194 13.9598C9.99194 13.7572 10.0094 13.5598 10.0437 13.3668V13.3651C10.0606 13.2689 10.082 13.1738 10.1067 13.0805C10.4938 11.6296 11.817 10.5618 13.3894 10.5618C13.8575 10.5618 14.3025 10.6557 14.7075 10.8273C15.9295 11.3415 16.7863 12.5505 16.7863 13.9598Z" fill="black"/>
<path d="M9.99194 14.2787V1.57162L12.8656 0.827881L16.7852 1.05798L16.7863 14.2787H9.99194Z" fill="black"/>
<path d="M16.7853 10.5624H16.5793V11.211H16.7853V10.5624Z" fill="black"/>
<path d="M20.729 12.0244H20.7414C21.0025 12.0244 21.2545 12.0751 21.4925 12.1752C22.2114 12.4779 22.6756 13.1783 22.6756 13.9597C22.6756 15.0264 21.8081 15.8939 20.7414 15.8939L14.9552 15.8928V12.0244H20.7161C20.72 12.0244 20.7245 12.0244 20.7285 12.0244H20.729ZM20.7408 10.5617C20.72 10.5617 20.6992 10.5617 20.6784 10.5617H13.4919V17.3549L20.7408 17.3561C22.6171 17.3561 24.1377 15.8348 24.1377 13.9592C24.1377 12.5493 23.2809 11.3409 22.059 10.8267C21.6534 10.6551 21.2084 10.5612 20.7408 10.5612V10.5617Z" fill="black"/>
</g>
<defs>
<clipPath id="clip0_39_4198">
<rect width="24.1383" height="16.8421" fill="white" transform="translate(0 0.526367)"/>
</clipPath>
</defs>
</svg>
